Coordinates
version=1
nRows=29
nColumns=30
inDegrees=yes

Units are S.I. units (second, meters, Newtons, ...)
Angles are in degrees.

endheader
time	floatyaw	floatroll	floatpitch	floatx	floaty	floatz	pro_sup_l	deviation_l	flexion_l	cmc_flexion_l	cmc_abduction_l	mp_flexion_l	ip_flexion_l	2mcp_flexion_l	2mcp_abduction_l	2pm_flexion_l	2md_flexion_l	3mcp_flexion_l	3mcp_abduction_l	3pm_flexion_l	3md_flexion_l	4mcp_flexion_l	4mcp_abduction_l	4pm_flexion_l	4md_flexion_l	5mcp_flexion_l	5mcp_abduction_l	5pm_flexion_l	5md_flexion_l
0.005000	-160.147433	-5.066637	-73.570646	-0.057062	-0.107989	-0.083702	112.418675	34.699831	-13.960768	6.522414	37.552255	-22.611517	-53.763404	31.965413	13.093976	57.841828	52.387990	47.644026	6.717924	59.231071	38.516321	46.511545	-5.882186	62.508092	45.979838	26.591090	-14.293141	75.554923	63.581612
0.015000	-160.147433	-5.066637	-73.570646	-0.057085	-0.104551	-0.083656	111.395132	34.471746	-14.083230	6.634347	37.451077	-22.859295	-53.815018	33.719400	13.364178	57.054690	51.888224	49.273684	6.734227	58.357126	37.990962	48.122572	-5.912193	61.520976	45.716095	28.142613	-14.439448	74.920407	63.869316
0.025000	-160.147433	-5.066637	-73.570646	-0.057140	-0.100409	-0.083708	110.423900	34.274438	-14.266447	6.883351	37.339801	-22.974328	-53.695311	35.683233	13.599358	55.975035	51.223210	51.022963	6.748376	57.154615	37.454784	49.898018	-5.925842	60.118959	45.529394	29.850094	-14.580628	73.995563	64.209246
0.035000	-160.147433	-5.066637	-73.570646	-0.057269	-0.096090	-0.083802	109.481213	34.141795	-14.357933	7.186754	37.264435	-23.081248	-53.607416	37.766651	13.788988	54.719056	50.430104	52.807808	6.748981	55.713386	36.916610	51.760876	-5.930527	58.378230	45.435427	31.628811	-14.688336	72.866345	64.600027
0.045000	-160.147433	-5.066637	-73.570646	-0.057454	-0.092233	-0.083880	108.582085	34.069054	-14.258617	7.452982	37.261219	-23.313073	-53.752314	39.738664	13.927830	53.502849	49.583842	54.454360	6.730170	54.238279	36.405188	53.528597	-5.936050	56.514660	45.454486	33.285063	-14.743848	71.709036	65.018894
0.055000	-160.147433	-5.066637	-73.570646	-0.057613	-0.089368	-0.083900	107.765363	34.020537	-13.956471	7.600709	37.341953	-23.715810	-54.206921	41.324672	14.017895	52.540229	48.776314	55.760129	6.694620	52.966615	35.962910	54.972643	-5.949154	54.808748	45.596485	34.577818	-14.745619	70.721573	65.431902
0.065000	-160.147433	-5.066637	-73.570646	-0.057631	-0.087731	-0.083848	107.070846	33.949331	-13.514552	7.577146	37.487162	-24.204335	-54.862378	42.326263	14.067969	51.943336	48.083515	56.576283	6.652314	52.062643	35.626042	55.906558	-5.970275	53.493653	45.840644	35.310398	-14.708447	70.037467	65.804527
0.075000	-160.147433	-5.066637	-73.570646	-0.057421	-0.087207	-0.083749	106.520002	33.817977	-13.023618	7.365920	37.653043	-24.605272	-55.472447	42.698380	14.091061	51.686526	47.542400	56.866041	6.615546	51.556873	35.407405	56.256978	-5.994503	52.673132	46.129443	35.408086	-14.654803	69.676742	66.110141
0.085000	-160.147433	-5.066637	-73.570646	-0.056961	-0.087421	-0.083656	106.108059	33.610597	-12.551076	6.981656	37.789693	-24.757433	-55.781315	42.548976	14.100556	51.645511	47.148187	56.710129	6.592786	51.360104	35.291471	56.082564	-6.015482	52.308294	46.384148	34.943102	-14.603279	69.558909	66.333279
0.095000	-160.147433	-5.066637	-73.570646	-0.056312	-0.087915	-0.083630	105.808660	33.333318	-12.116503	6.457105	37.859236	-24.600250	-55.643647	42.074412	14.106484	51.674094	46.867399	56.263751	6.584920	51.328106	35.241211	55.538380	-6.029073	52.263091	46.532533	34.097484	-14.561167	69.557497	66.467581
0.105000	-160.147433	-5.066637	-73.570646	-0.055580	-0.088315	-0.083709	105.585958	33.006075	-11.702112	5.831661	37.841304	-24.198695	-55.066014	41.473544	14.113545	51.668049	46.655090	55.693000	6.585911	51.329684	35.210953	54.810070	-6.034519	52.371992	46.532463	33.085842	-14.525181	69.556363	66.511275
0.115000	-160.147433	-5.066637	-73.570646	-0.054862	-0.088435	-0.083896	105.406527	32.651605	-11.282942	5.145914	37.723011	-23.703136	-54.163208	40.882995	14.121590	51.588452	46.468391	55.121594	6.587079	51.285551	35.160336	54.050197	-6.033259	52.498089	46.380296	32.076908	-14.488293	69.482530	66.463750
0.125000	-160.147433	-5.066637	-73.570646	-0.054213	-0.088277	-0.084161	105.246080	32.286929	-10.852981	4.440694	37.483712	-23.279654	-53.076671	40.355521	14.127538	51.448134	46.275063	54.607103	6.582093	51.172994	35.065800	53.341350	-6.027108	52.566302	46.103289	31.148866	-14.446689	69.313759	66.325316
0.135000	-160.147433	-5.066637	-73.570646	-0.053632	-0.087965	-0.084458	105.091066	31.920226	-10.431731	3.756829	37.089233	-23.051332	-51.911869	39.877836	14.127067	51.282675	46.058732	54.148213	6.569831	51.009151	34.926435	52.694321	-6.017259	52.568860	45.743162	30.291978	-14.402163	69.070587	66.099479
0.145000	-160.147433	-5.066637	-73.570646	-0.053084	-0.087659	-0.084744	104.938003	31.553068	-10.051792	3.133677	36.502083	-23.072397	-50.723014	39.407278	14.115458	51.126128	45.821120	53.710573	6.553965	50.828718	34.762124	52.073194	-6.004410	52.547630	45.340387	29.446405	-14.359708	68.801409	65.794844
0.155000	-160.147433	-5.066637	-73.570646	-0.052532	-0.087469	-0.084998	104.792190	31.185204	-9.739699	2.606417	35.701122	-23.333383	-49.535798	38.905220	14.088443	50.999588	45.579603	53.254930	6.540160	50.665900	34.604676	51.430126	-5.989324	52.562969	44.925881	28.549026	-14.323524	68.564397	65.424495
0.165000	-160.147433	-5.066637	-73.570646	-0.051959	-0.087431	-0.085227	104.664787	30.818037	-9.503134	2.202450	34.696995	-23.782266	-48.378244	38.355025	14.043793	50.910023	45.359365	52.756429	6.532805	50.543620	34.485609	50.733161	-5.973133	52.662339	44.520871	27.565827	-14.294735	68.408838	65.003700
0.175000	-160.147433	-5.066637	-73.570646	-0.051368	-0.087512	-0.085451	104.567212	30.454718	-9.330195	1.937500	33.533134	-24.347683	-47.294653	37.763782	13.983079	50.853898	45.182765	52.211582	6.533005	50.469770	34.425501	49.977868	-5.957155	52.861335	44.140716	26.500134	-14.271789	68.360779	64.548326
0.185000	-160.147433	-5.066637	-73.570646	-0.050782	-0.087648	-0.085697	104.504705	30.098044	-9.197924	1.812855	32.272357	-24.957807	-46.337055	37.153931	13.912134	50.822213	45.060806	51.635250	6.538606	50.439330	34.428571	49.183473	-5.942577	53.142919	43.797501	25.382053	-14.252262	68.418074	64.074952
0.195000	-160.147433	-5.066637	-73.570646	-0.050224	-0.087780	-0.085980	104.472707	29.748954	-9.083421	1.815179	30.977926	-25.553366	-45.545539	36.552605	13.839457	50.805218	44.990489	51.052850	6.545773	50.439976	34.483349	48.381433	-5.930352	53.470486	43.499368	24.252403	-14.234178	68.555459	63.601673
0.205000	-160.147433	-5.066637	-73.570646	-0.049714	-0.087877	-0.086299	104.458084	29.406980	-8.971687	1.919313	29.699040	-26.094258	-44.933125	35.984141	13.773426	50.795431	44.958222	50.492512	6.550925	50.458117	34.568083	47.604730	-5.921325	53.804661	43.248510	23.151388	-14.216110	68.735642	63.148107
0.215000	-160.147433	-5.066637	-73.570646	-0.049259	-0.087935	-0.086643	104.443984	29.071720	-8.857630	2.093690	28.465001	-26.559835	-44.483725	35.466582	13.719939	50.788664	44.946134	49.978835	6.551918	50.483365	34.658435	46.880869	-5.916265	54.115689	43.040775	22.112875	-14.196647	68.921779	62.733340
0.225000	-160.147433	-5.066637	-73.570646	-0.048859	-0.087970	-0.086992	104.415636	28.743863	-8.743149	2.307538	27.286306	-26.944693	-44.161739	35.009850	13.681562	50.783798	44.937517	49.527517	6.548188	50.511059	34.734819	46.227032	-5.915554	54.389018	42.867894	21.159580	-14.174352	69.088146	62.371543
0.235000	-160.147433	-5.066637	-73.570646	-0.048510	-0.088002	-0.087330	104.364909	28.425364	-8.632422	2.537946	26.159750	-27.253073	-43.926331	34.614254	13.658101	50.781771	44.919726	49.141168	6.540280	50.542674	34.787148	45.646638	-5.918709	54.625074	42.721034	20.297694	-14.148571	69.226001	62.067307
0.245000	-160.147433	-5.066637	-73.570646	-0.048200	-0.088044	-0.087646	104.292211	28.119332	-8.528562	2.773736	25.076750	-27.494422	-43.744003	34.270880	13.647761	50.783630	44.885610	48.808883	6.529357	50.583648	34.815909	45.129625	-5.924302	54.834696	42.593816	19.515553	-14.120383	69.341865	61.814647
0.255000	-160.147433	-5.066637	-73.570646	-0.047922	-0.088102	-0.087938	104.205057	27.829909	-8.432835	3.013711	24.033938	-27.680840	-43.596010	33.965521	13.647961	50.788375	44.835022	48.511566	6.516893	50.639089	34.829929	44.658482	-5.930522	55.031827	42.483725	18.790726	-14.092609	69.448814	61.601960
0.265000	-160.147433	-5.066637	-73.570646	-0.047668	-0.088173	-0.088205	104.113897	27.561952	-8.345561	3.260013	23.041720	-27.825650	-43.479301	33.684663	13.655514	50.792493	44.775999	48.230980	6.504419	50.709676	34.842173	44.217608	-5.936010	55.226349	42.391910	18.102925	-14.068594	69.556449	61.420135
0.275000	-160.147433	-5.066637	-73.570646	-0.047435	-0.088252	-0.088445	104.027340	27.320259	-8.267175	3.510770	22.125138	-27.941788	-43.401186	33.420000	13.666640	50.791837	44.723390	47.957522	6.493208	50.790190	34.865071	43.800343	-5.940406	55.420206	42.321909	17.444470	-14.050550	69.665995	61.267875
0.285000	-160.147433	-5.066637	-73.570646	-0.047226	-0.088333	-0.088655	103.949279	27.108467	-8.198758	3.756711	21.315312	-28.039365	-43.369981	33.169424	13.677452	50.783863	44.693625	47.692698	6.484038	50.871042	34.906514	43.409628	-5.944319	55.608059	42.277755	16.821962	-14.038587	69.771905	61.150572
